<?xml version="1.0" encoding="UTF-8" standalone="no"?> <svg height="512" viewBox="0 0 64 64"  fill="currentColor" width="512" xmlns="http://www.w3.org/2000/svg"><path d="m13 45a1 1 0 0 0 0 2h10a1 1 0 0 0 0-2z"/><path d="m7 51h15a1 1 0 0 0 0-2h-15a1 1 0 0 0 0 2z"/><path d="m7 55h15a1 1 0 0 0 0-2h-15a1 1 0 0 0 0 2z"/><circle cx="7" cy="23" r="1"/><circle cx="11" cy="23" r="1"/><path d="m19.45 33.11-6-3a1 1 0 0 0 -1.45.89v6a1 1 0 0 0 .47.85 1 1 0 0 0 .53.15 1 1 0 0 0 .45-.11l6-3a1 1 0 0 0 0-1.78zm-5.45 2.27v-2.76l2.76 1.38z"/><path d="m15 43a9 9 0 0 0 4.57-1.25 1 1 0 0 0 -1-1.73 7 7 0 1 1 2.43-2.47 1 1 0 0 0 1.73 1 9 9 0 1 0 -7.73 4.45z"/><path d="m25 18h-20a3 3 0 0 0 -3 3v20a1 1 0 0 0 2 0v-20a1 1 0 0 1 1-1h20a1 1 0 0 1 1 1v38a1 1 0 0 1 -1 1h-20a1 1 0 0 1 -1-1v-14a1 1 0 0 0 -2 0v14a3 3 0 0 0 3 3h20a3 3 0 0 0 3-3v-38a3 3 0 0 0 -3-3z"/><path d="m49.45 24.11-6-3a1 1 0 0 0 -1.45.89v6a1 1 0 0 0 .47.85 1 1 0 0 0 .53.15 1 1 0 0 0 .45-.11l6-3a1 1 0 0 0 0-1.78zm-5.45 2.27v-2.76l2.76 1.38z"/><path d="m37 39h16a1 1 0 0 0 0-2h-16a1 1 0 0 0 0 2z"/><path d="m30 42a1 1 0 0 0 1 1h22a1 1 0 0 0 0-2h-22a1 1 0 0 0 -1 1z"/><path d="m58 12h-46a4 4 0 0 0 -3.76 2.67 1 1 0 0 0 1.89.66 2 2 0 0 1 1.87-1.33h46a2 2 0 0 1 2 2v30a2 2 0 0 1 -2 2h-27a1 1 0 0 0 0 2h27a4 4 0 0 0 4-4v-30a4 4 0 0 0 -4-4z"/><path d="m51.38 29.92a1 1 0 0 0 1.37-.35 9 9 0 1 0 -3.18 3.18 1 1 0 0 0 -1-1.73 7 7 0 1 1 2.43-2.47 1 1 0 0 0 .38 1.37z"/></svg>